<svg id="Layer_1" data-name="Layer 1" xmlns="http://www.w3.org/2000/svg" viewBox="0 0 2321.9 2500"><defs><style>.cls-1{fill:#fff;}</style></defs><title>bsi-kitemark-logo</title><path class="cls-1" d="M1978.3,700.6H1178.5V620.7l.3-17.4c0-218.8,179.3-396.7,399.8-396.7s399.8,177.9,399.8,396.7l-.1,97.3Zm-552,1021.9c.3-6.4.5-12.7.5-19.1,0-220.7-146.1-313.5-275-395.5-110.1-70-205.3-130.4-205.3-255.5,0-90.4,65-177.8,148.2-199.9l847.5,1.5c-25.9,43.8-450.5,758.5-515.9,868.5m-324.4,551.2q-63-105.75-126-211.6c23.7,5,47.8,8.3,72.2,8.3,78.2,0,153.5-25.6,216.6-71.6-54.9,92.7-131.7,222.4-162.8,274.9M732.5,1654.9S338,993.3,256.6,856.8c50.3.1,541.6.3,594,.3-36.5,56.8-58.1,124.8-58.1,192.2,0,203.4,137,293.9,257.8,373.7,109.8,72.5,213.5,141,213.5,283.3,0,116.8-95.5,204.9-222.3,204.9-74,0-152.9-34.5-211.3-92.4-2.4-3.9-97.7-163.9-97.7-163.9M234.1,603.3c0-218.8,179.2-396.7,399.6-396.7s399.8,178,399.8,396.7l.6,29.7s.8,46.3,1.1,67.6H234.1V603.3Zm1889.5,0c0-298.4-244.5-541.2-545-541.2-197.5,0-375.4,104.6-472.4,273.6-97.2-169-275-273.6-472.5-273.6C328,62.1,79.3,304.9,79.3,603.3l-.2,240.2L1101.7,2562.1,2123.6,837.6V603.3m181.6,128.8h25l23.1,59.6,22.7-59.6h25v88.2h-16.1V752.9h-.4l-24.8,67.4h-13.1l-24.8-67.4h-.4v67.4h-16.1V732.1Zm-64,14.8H2214V732.1h70.4v14.8h-27.1v73.4h-16.1V746.9Z" transform="translate(-79.1 -62.1)"/></svg>