<svg id="Layer_1" data-name="Layer 1" xmlns="http://www.w3.org/2000/svg" viewBox="0 0 651.76 197.1"><defs><style>.cls-1{fill:#fff;}</style></defs><title>bsif-logo</title><path class="cls-1" d="M113.07,98.59H90.87l-7,29.71h30.48c17.17,0,30.82-2.68,33.66-14.75,3.31-14.07-12.76-15-35-15h0ZM128.42,43.4H103.86L97.67,69.72h28.87c13.85,0,25-4.61,27.12-13.82,2.89-12.28-10.61-12.5-25.23-12.5h0ZM109.07,165.23H5.62L43,6.48H144.37c47.63,0,83.54,8.35,76.13,39.8-3.85,16.36-20.75,28.3-35.48,34.78,21.86,4.41,30.71,19.2,26.66,36.42-8.34,35.44-47.34,47.75-102.61,47.75Z" transform="translate(-5.62 -5.45)"/><path class="cls-1" d="M432.68,46c7.53,7.19,23.84,5.16,36.42-4.52s16.67-23.37,9.13-30.55-23.84-5.16-36.42,4.52S425.15,38.83,432.68,46Z" transform="translate(-5.62 -5.45)"/><path class="cls-1" d="M349.13,54.49c.12-5.27-2.79-8.42-7.12-10.56-4.33-1.93-10-2.73-16.53-2.73-14.65,0-21.87,3.16-23.16,8.64C297,72.59,416.79,58.47,403.8,113.68c-8.24,35-51.32,52-107,52-53.46,0-82.85-23.27-77.84-50.52h63.54c.12,5.45,3.12,9.43,8.36,12,4.74,2.52,11.45,3.78,17.9,3.78,16.55,0,28.43-4,30.11-11.15,5.38-22.9-114.82-7.16-101.24-64.87,7.58-32.22,48.51-48.44,99.17-48.44,56.29,0,76.82,21.48,75.36,48h-63Z" transform="translate(-5.62 -5.45)"/><polygon class="cls-1" points="415.16 71.01 414.87 71.08 418.37 56.42 467.79 56.42 445.76 158.98 395.67 158.98 415.16 71.01 415.16 71.01"/><polygon class="cls-1" points="468.37 158.98 505.73 0.22 651.76 0 641.76 39.92 565.93 40.04 560.42 63.47 612.77 63.92 604.43 102.2 551.52 102.2 539.41 158.98 468.37 158.98"/><path class="cls-1" d="M7.42,179.87H19.24c4.47,0,7.11.84,7.11,5.76,0,2.85-.57,4.71-3.54,5.19v.24c3.33.21,3.9,2.22,3.9,5,0,5.52-2.58,6.27-7.35,6.27H7.42V179.87Zm6,9h4.32c2.1,0,2.61-.36,2.61-2.16,0-1.35-.21-1.86-1.89-1.92h-5v4.08Zm0,8.58H18c2,0,2.76-.45,2.76-2.28S20,193,18.07,193H13.42v4.45Z" transform="translate(-5.62 -5.45)"/><path class="cls-1" d="M29.47,179.87H41c5.19.09,7.74,1.2,7.74,6.81,0,3.75,0,5.94-4.26,6.93v.24c2.46.09,4,1.44,4,4v4.53h-6v-3.15c.06-1.68-.66-2.82-2.46-2.82H35.47v6h-6V179.87Zm10.65,11.31c2.58,0,2.49-1,2.49-3.51,0-2-.51-2.58-2.49-2.58H35.47v6.09Z" transform="translate(-5.62 -5.45)"/><path class="cls-1" d="M57.88,202.37h-6v-22.5h6Z" transform="translate(-5.62 -5.45)"/><path class="cls-1" d="M71.53,202.37h-6V185.09H59.77v-5.22H77.59v5.22H71.53Z" transform="translate(-5.62 -5.45)"/><path class="cls-1" d="M85.45,202.37h-6v-22.5h6Z" transform="translate(-5.62 -5.45)"/><path class="cls-1" d="M99.4,188.69c6.66.48,8.31,1.32,8.31,6.48,0,3.72.15,7.38-9.75,7.38-5.73,0-9.54-.12-9.54-7.5h5.76c0,2.34.84,2.58,3.78,2.58s3.75-.18,3.75-2.07-.33-1.92-3.15-2.1l-1.32-.09c-5.55-.39-8.79-.36-8.79-6.81s3.63-6.87,9.51-6.87c4.92,0,9.12.09,9.12,6.3v.93h-5.76c0-2.31-1-2.31-3.36-2.31-3.24,0-3.51.66-3.51,1.92,0,1.8.87,1.86,2.46,2Z" transform="translate(-5.62 -5.45)"/><path class="cls-1" d="M130.53,202.37h-6v-8.82H116.7v8.82h-6v-22.5h6v8.46h7.83v-8.46h6Z" transform="translate(-5.62 -5.45)"/><path class="cls-1" d="M155.31,188.69c6.66.48,8.31,1.32,8.31,6.48,0,3.72.15,7.38-9.75,7.38-5.73,0-9.54-.12-9.54-7.5h5.76c0,2.34.84,2.58,3.78,2.58s3.75-.18,3.75-2.07-.33-1.92-3.15-2.1l-1.32-.09c-5.55-.39-8.79-.36-8.79-6.81s3.63-6.87,9.51-6.87c4.92,0,9.12.09,9.12,6.3v.93h-5.76c0-2.31-1-2.31-3.36-2.31-3.24,0-3.51.66-3.51,1.92,0,1.8.87,1.86,2.46,2Z" transform="translate(-5.62 -5.45)"/><path class="cls-1" d="M171.69,198.5l-1.11,3.87h-6.24l6.75-22.5h9.12l6.84,22.5h-6.12l-1.17-3.87Zm4.08-14.13h-.06L173,194.12h5.58Z" transform="translate(-5.62 -5.45)"/><path class="cls-1" d="M194.34,189.2h9.18v4.92h-9.18v8.25h-6v-22.5h16v4.92h-10Z" transform="translate(-5.62 -5.45)"/><path class="cls-1" d="M213.09,188.9h9.6v4.17h-9.6v4.38h10.44v4.92H207.09v-22.5h16.23v4.92H213.09Z" transform="translate(-5.62 -5.45)"/><path class="cls-1" d="M237.3,202.37h-6V185.09h-5.76v-5.22h17.82v5.22H237.3Z" transform="translate(-5.62 -5.45)"/><path class="cls-1" d="M256.86,194.48v7.89h-6v-7.89l-8-14.61h6.87l4,8.67H254l4.14-8.67h7Z" transform="translate(-5.62 -5.45)"/><path class="cls-1" d="M283.26,202.37h-6v-22.5h6Z" transform="translate(-5.62 -5.45)"/><path class="cls-1" d="M293,202.37h-6v-22.5h10.14l6.45,17.28h.24l-.36-17.28h6v22.5H299.19l-6.36-17.28h-.24Z" transform="translate(-5.62 -5.45)"/><path class="cls-1" d="M312.81,179.87h11.4c6.27,0,9.06,2.34,9.06,8.73v4.71c0,6.15-2,9.06-8.25,9.06H312.81Zm6,17.28h5.25c2.22,0,3-1.47,3-3.84V188.6c0-2.91-.93-3.51-3-3.51h-5.25v12.06Z" transform="translate(-5.62 -5.45)"/><path class="cls-1" d="M355.77,179.87v15c0,6-2.82,7.68-9.42,7.68-9,0-10-2.28-10-7.68v-15h6v14.88c0,2.55,1.44,2.58,4,2.58s3.42-.21,3.42-2.85V179.87Z" transform="translate(-5.62 -5.45)"/><path class="cls-1" d="M369.72,188.69c6.66.48,8.31,1.32,8.31,6.48,0,3.72.15,7.38-9.75,7.38-5.73,0-9.54-.12-9.54-7.5h5.76c0,2.34.84,2.58,3.78,2.58s3.75-.18,3.75-2.07-.33-1.92-3.15-2.1l-1.32-.09c-5.55-.39-8.79-.36-8.79-6.81s3.63-6.87,9.51-6.87c4.92,0,9.12.09,9.12,6.3v.93h-5.76c0-2.31-1-2.31-3.36-2.31-3.24,0-3.51.66-3.51,1.92,0,1.8.87,1.86,2.46,2Z" transform="translate(-5.62 -5.45)"/><path class="cls-1" d="M390.9,202.37h-6V185.09h-5.76v-5.22H397v5.22h-6.1Z" transform="translate(-5.62 -5.45)"/><path class="cls-1" d="M398.67,179.87h11.58c5.19.09,7.74,1.2,7.74,6.81,0,3.75,0,5.94-4.26,6.93v.24c2.46.09,4,1.44,4,4v4.53h-6v-3.15c.06-1.68-.66-2.82-2.46-2.82h-4.65v6h-6v-22.5Zm10.65,11.31c2.58,0,2.49-1,2.49-3.51,0-2-.51-2.58-2.49-2.58h-4.65v6.09Z" transform="translate(-5.62 -5.45)"/><path class="cls-1" d="M432.72,194.48v7.89h-6v-7.89l-8-14.61h6.87l4,8.67h.21l4.14-8.67h7Z" transform="translate(-5.62 -5.45)"/><path class="cls-1" d="M458.91,189.2h9.18v4.92h-9.18v8.25h-6v-22.5h16v4.92h-10Z" transform="translate(-5.62 -5.45)"/><path class="cls-1" d="M477.66,188.9h9.6v4.17h-9.6v4.38H488.1v4.92H471.66v-22.5h16.23v4.92H477.66Z" transform="translate(-5.62 -5.45)"/><path class="cls-1" d="M491.64,179.87H503c6.27,0,9.06,2.34,9.06,8.73v4.71c0,6.15-2,9.06-8.25,9.06H491.64Zm6,17.28h5.25c2.22,0,3-1.47,3-3.84V188.6c0-2.91-.93-3.51-3-3.51h-5.25v12.06Z" transform="translate(-5.62 -5.45)"/><path class="cls-1" d="M521.25,188.9h9.6v4.17h-9.6v4.38h10.44v4.92H515.25v-22.5h16.23v4.92H521.25Z" transform="translate(-5.62 -5.45)"/><path class="cls-1" d="M535.38,179.87H547c5.19.09,7.74,1.2,7.74,6.81,0,3.75,0,5.94-4.26,6.93v.24c2.46.09,4,1.44,4,4v4.53h-6v-3.15c.06-1.68-.66-2.82-2.46-2.82h-4.65v6h-6V179.87ZM546,191.18c2.58,0,2.49-1,2.49-3.51,0-2-.51-2.58-2.49-2.58h-4.65v6.09Z" transform="translate(-5.62 -5.45)"/><path class="cls-1" d="M562.92,198.5l-1.11,3.87h-6.24l6.75-22.5h9.12l6.84,22.5h-6.12L571,198.5h-8.08ZM567,184.37h-.06l-2.73,9.75h5.58Z" transform="translate(-5.62 -5.45)"/><path class="cls-1" d="M588.84,202.37h-6V185.09h-5.76v-5.22H594.9v5.22h-6.06Z" transform="translate(-5.62 -5.45)"/><path class="cls-1" d="M602.76,202.37h-6v-22.5h6Z" transform="translate(-5.62 -5.45)"/><path class="cls-1" d="M605.61,194.3v-6.36c0-6.93,4.32-8.25,10.41-8.25s10.41,1.32,10.41,8.25v6.36c0,6.93-4.32,8.25-10.41,8.25S605.61,201.23,605.61,194.3Zm14.64-.66v-5.07c0-3.33-1.11-3.66-4.23-3.66s-4.14.33-4.23,3.66v5.07c.09,3.36,1.11,3.69,4.23,3.69S620.25,197,620.25,193.64Z" transform="translate(-5.62 -5.45)"/><path class="cls-1" d="M635.25,202.37h-6v-22.5h10.14l6.45,17.28h.24l-.36-17.28h6v22.5H641.49l-6.36-17.28h-.24Z" transform="translate(-5.62 -5.45)"/><rect class="cls-1" y="164.92" width="649.27" height="5"/></svg>