<svg id="Layer_1" data-name="Layer 1" xmlns="http://www.w3.org/2000/svg" viewBox="0 0 183.9 184.2"><defs><style>.cls-1{fill:#fff;}</style></defs><title>registered-safety-supplier-logo</title><path class="cls-1" d="M98,190.6h0C69.1,186.7,6.1,153.4,6.1,79.9c0-31.8,15.4-62.5,25.8-73.2l.3-.3.4.2c11.8,4.6,21.5,5.5,32.4,5.5,9.7,0,20.4-.6,32.8-5.4l.2-.1.3.1c12.4,4.7,23.1,5.4,32.8,5.4,10.9,0,20.6-.9,32.6-5.5l.4-.2.3.3C174.7,17.6,190,48.4,190,79.9c-.1,73.5-63.1,106.8-92,110.7ZM32.5,8c-10.2,10.9-25,40.9-25,71.9,0,40,19.1,66,35.2,80.7,18.5,17,41.1,26.6,55.3,28.6,14.2-2,36.8-11.6,55.3-28.6,16-14.7,35.2-40.7,35.2-80.7,0-30.8-14.7-60.9-24.9-71.9-12,4.5-21.7,5.5-32.6,5.5-9.8,0-20.5-.7-33-5.4-12.5,4.7-23.2,5.4-33,5.4C54,13.5,44.3,12.6,32.5,8Z" transform="translate(-6.1 -6.4)"/><path class="cls-1" d="M70.7,100.5c-2.5,0-3.3,2.3-3.3,4.4,0,1.9,1,4.2,3.1,4.2,2.3,0,3.2-2,3.2-4.3S72.8,100.5,70.7,100.5Z" transform="translate(-6.1 -6.4)"/><path class="cls-1" d="M118.7,149.3a1.84,1.84,0,0,0-1.9,1.9h3.6C120.3,150.2,119.9,149.3,118.7,149.3Z" transform="translate(-6.1 -6.4)"/><path class="cls-1" d="M86.8,132.7c-1.1,0-2.7.2-2.7,1.6,0,.8.7,1.1,1.5,1.1a2.14,2.14,0,0,0,1.7-.8,3,3,0,0,0,.5-1.9h-1Z" transform="translate(-6.1 -6.4)"/><path class="cls-1" d="M100.6,149.4c-1.4,0-1.9,1.5-1.9,2.6s.5,2.7,1.9,2.7,1.8-1.5,1.8-2.7S102,149.4,100.6,149.4Z" transform="translate(-6.1 -6.4)"/><path class="cls-1" d="M37.8,96H36.5v5.1h1.3c1.9,0,4-.3,4-2.6S39.7,96,37.8,96Z" transform="translate(-6.1 -6.4)"/><path class="cls-1" d="M90.9,149.4c-1.4,0-1.9,1.5-1.9,2.6s.5,2.7,1.9,2.7,1.8-1.5,1.8-2.7S92.3,149.4,90.9,149.4Z" transform="translate(-6.1 -6.4)"/><path class="cls-1" d="M55.2,100.3c-2,0-3.1,1.4-3.2,3.3h6.2C58.1,101.8,57.3,100.3,55.2,100.3Z" transform="translate(-6.1 -6.4)"/><path class="cls-1" d="M11.3,82.9C13,150.8,71.9,181.6,98,185.5c26.1-3.9,85-34.7,86.7-102.6Zm115.3,15h3.2v3.2h.1c.2-1.3,1.7-3.5,3.8-3.5a4.1,4.1,0,0,1,1.1.1v3.7a3.51,3.51,0,0,0-1.6-.3c-3,0-3,3.7-3,5.7v5.1h-3.6v-14Zm-11.3,29.8H118l2.2,6.8h0l2.2-6.8h2.4l-3.5,9.2c-.8,2.1-1.3,4.1-3.9,4.1a4.67,4.67,0,0,1-1.7-.3l.2-1.8a3.26,3.26,0,0,0,1.2.2,1.55,1.55,0,0,0,1.6-1.7ZM117,97.6c5.2,0,6.7,3.6,6.7,8.5H114c.2,2.3,1.7,3.5,4,3.5a10.35,10.35,0,0,0,4.7-1.4v3a10,10,0,0,1-4.8,1.1c-4.6,0-7.3-2.7-7.3-7.3C110.5,101,112.6,97.6,117,97.6Zm-17.7.3H102V95.1l3.6-1.2v4h3.2v2.7h-3.2v6.5c0,1.2.3,2.3,1.7,2.3a2.86,2.86,0,0,0,1.7-.4l.1,2.9a10.59,10.59,0,0,1-2.7.3c-2.9,0-4.4-1.8-4.4-4.5v-7.1H99.3Zm3.8,29.6c3.4,0,4.4,2.4,4.4,5.6h-6.4a2.4,2.4,0,0,0,2.6,2.3,6.26,6.26,0,0,0,3.1-.9v2a6.31,6.31,0,0,1-3.2.7c-3.1,0-4.8-1.8-4.8-4.8C98.8,129.7,100.2,127.5,103.1,127.5ZM93.3,97.6a20.69,20.69,0,0,1,4,.5l-.2,2.7a8.45,8.45,0,0,0-3.3-.6c-1,0-2.1.4-2.1,1.6,0,2.2,6.3.8,6.3,5.9,0,3.3-2.9,4.6-5.9,4.6a14,14,0,0,1-4.1-.6l.2-3a7.4,7.4,0,0,0,3.6.9c.9,0,2.4-.4,2.4-1.7,0-2.7-6.3-.9-6.3-5.9C87.8,99,90.5,97.6,93.3,97.6ZM81.2,91.9h3.6v3.5H81.2Zm0,6h3.6v14H81.2ZM42.7,112l-2.3-5.9c-.5-1.4-1-2-2.6-2H36.6V112H32.8V93h4.1c4.1,0,9-.1,9,5.1a4.34,4.34,0,0,1-3.9,4.4v.1c1,.1,1.6,1.1,2,2l3,7.4ZM56,109.6a10.35,10.35,0,0,0,4.7-1.4v3a10,10,0,0,1-4.8,1.1c-4.6,0-7.3-2.7-7.3-7.3,0-4.1,2.1-7.4,6.5-7.4,5.2,0,6.7,3.6,6.7,8.5H52A3.67,3.67,0,0,0,56,109.6Zm17.7.1a5,5,0,0,1-4.4,2.2c-4.1,0-5.7-3.3-5.7-7.1,0-3.4,1.7-7.3,5.9-7.3a4.68,4.68,0,0,1,4.3,2.2h.1V97.8h3.5v12.7c0,3.8-1.5,7.4-7.4,7.4a11.18,11.18,0,0,1-4.8-1l.3-3.1a10.18,10.18,0,0,0,4.1,1.2c4,.2,4.2-2.9,4.1-5.3ZM71,156.3a13.52,13.52,0,0,1-2.9-.4l.2-2a5.53,5.53,0,0,0,2.5.7c.8,0,2-.4,2-1.4,0-2.1-4.9-1.2-4.9-4.9,0-2.5,1.9-3.4,3.9-3.4a7.66,7.66,0,0,1,2.7.4l-.2,1.8a5.93,5.93,0,0,0-2.3-.5c-.8,0-1.8.3-1.8,1.6,0,1.9,4.9,1.1,4.9,4.9C75.2,155.4,73.2,156.3,71,156.3Zm1.4-19.6.2-2.3a6,6,0,0,0,2.8.8c1,0,2.2-.5,2.2-1.6,0-2.4-5.5-1.4-5.5-5.6,0-2.8,2.2-3.8,4.4-3.8a7.29,7.29,0,0,1,3,.5l-.2,2.1a7.51,7.51,0,0,0-2.6-.5c-.9,0-2,.4-2,1.7,0,2.2,5.5,1.3,5.5,5.5,0,2.8-2.2,3.8-4.7,3.8A15.47,15.47,0,0,1,72.4,136.7Zm12.2,19.4h-2V155h0a3.51,3.51,0,0,1-2.7,1.3c-2,0-2.8-1.4-2.8-3.2v-5.2h2.1v4.4c0,1,0,2.4,1.4,2.4,1.6,0,1.9-1.7,1.9-2.7v-4h2.1Zm-2.8-21.7a2.63,2.63,0,0,1,1.6-2.6,6.55,6.55,0,0,1,3.1-.5h1.3c0-1.5-.7-2-2.1-2a5.08,5.08,0,0,0-2.9,1l-.1-2.1a8.76,8.76,0,0,1,3.2-.7c2.8,0,4,1.2,4,3.9v3.5c0,.7.1,1.4.1,2.1H88a7.6,7.6,0,0,1-.1-1.4h0a3.48,3.48,0,0,1-2.9,1.6A3,3,0,0,1,81.8,134.4Zm9.6,21.9a2.74,2.74,0,0,1-2.4-1.1h0v4.3H86.9V147.9h2v1.2h0a2.87,2.87,0,0,1,2.6-1.4c2.5,0,3.5,2,3.5,4.3S94,156.3,91.4,156.3Zm4.3-19.4H93.3v-7.5H91.5v-1.8h1.8v-1.3c0-1.9,1-3.2,3-3.2a9.91,9.91,0,0,1,1.8.2l-.2,2a2,2,0,0,0-1-.3c-.8,0-1.1.7-1.1,1.4v1.2h2.1v1.8H95.8v7.5Zm5.5,19.4a2.74,2.74,0,0,1-2.4-1.1h0v4.3H96.7V147.9h2v1.2h0a2.87,2.87,0,0,1,2.6-1.4c2.5,0,3.5,2,3.5,4.3S103.7,156.3,101.2,156.3Zm7.3-.2h-2.1v-12h2.1Zm4.5,0h-2.1v-8.2H113Zm0-9.7h-2.1v-2H113Zm-2.8-12.2v-4.7h-1.8v-1.8h1.8v-1.9l2.4-.8v2.6h2.1v1.8h-2.1v4.3c0,.8.2,1.5,1.1,1.5a2,2,0,0,0,1.1-.3l.1,1.9a9,9,0,0,1-1.8.2C111.2,137.2,110.2,136,110.2,134.2Zm8.9,20.6a6.08,6.08,0,0,0,2.7-.8v1.7a6.1,6.1,0,0,1-2.8.7,3.94,3.94,0,0,1-4.3-4.3c0-2.4,1.3-4.4,3.8-4.4,3.1,0,3.9,2.1,3.9,5h-5.7A2.31,2.31,0,0,0,119.1,154.8Zm9.9-4.9a2.51,2.51,0,0,0-1-.2c-1.7,0-1.7,2.2-1.7,3.4v3h-2.1v-8.2h1.9v1.9h0a2.56,2.56,0,0,1,2.3-2.1,2,2,0,0,1,.7.1v2.1Zm3.9-5.1h-1v2.7h-.6v-2.7h-1v-.5H133v.5Zm3.5,2.7-.1-1.9v-.9h0c-.1.3-.2.7-.3,1l-.6,1.8h-.7l-.6-1.9a2.39,2.39,0,0,1-.2-.9h0v.9l-.1,1.9h-.6l.2-3.3h1l.6,1.6c.1.3.1.5.2.8h0a3.09,3.09,0,0,0,.2-.8l.6-1.6h.9l.3,3.3h-.8Zm6.8-37.9a10.35,10.35,0,0,0,4.7-1.4v3a10,10,0,0,1-4.8,1.1c-4.6,0-7.3-2.7-7.3-7.3,0-4.1,2.1-7.4,6.5-7.4,5.2,0,6.7,3.6,6.7,8.5h-9.7C139.3,108.3,140.9,109.6,143.2,109.6Zm17.9,2.4v-1.6H161a5.12,5.12,0,0,1-4.3,1.9c-4.3,0-5.9-3.5-5.9-7.4s1.6-7.3,5.9-7.3a4.9,4.9,0,0,1,4.2,2h.1v-8h3.6V112Z" transform="translate(-6.1 -6.4)"/><path class="cls-1" d="M117.2,100.3c-2,0-3.1,1.4-3.2,3.3h6.2C120.1,101.8,119.2,100.3,117.2,100.3Z" transform="translate(-6.1 -6.4)"/><path class="cls-1" d="M157.7,100.5c-2.4,0-3,2.6-3,4.5s.7,4.5,3.1,4.5,3.2-2.6,3.2-4.5S160,100.5,157.7,100.5Z" transform="translate(-6.1 -6.4)"/><path class="cls-1" d="M142.4,100.3c-2,0-3.1,1.4-3.2,3.3h6.2C145.3,101.8,144.5,100.3,142.4,100.3Z" transform="translate(-6.1 -6.4)"/><path class="cls-1" d="M103.2,129.2c-1.4,0-2,.9-2.1,2.2h4.1C105.1,130.2,104.6,129.2,103.2,129.2Z" transform="translate(-6.1 -6.4)"/><path class="cls-1" d="M48.5,50.4h-5l-1.6,6.7h6.9c3.9,0,7-.6,7.6-3.3.8-3.2-2.9-3.4-7.9-3.4ZM52,37.9H46.4l-1.4,6h6.6c3.1,0,5.7-1,6.2-3.1.6-2.8-2.5-2.9-5.8-2.9ZM47.6,65.6H24.1l8.5-36h23c10.8,0,19,1.9,17.3,9-.9,3.7-4.7,6.4-8.1,7.9,5,1,7,4.4,6.1,8.3-1.9,8-10.8,10.8-23.3,10.8Z" transform="translate(-6.1 -6.4)"/><path class="cls-1" d="M121.1,38.5c1.7,1.6,5.4,1.2,8.3-1s3.8-5.3,2.1-6.9-5.4-1.2-8.3,1-3.8,5.3-2.1,6.9Z" transform="translate(-6.1 -6.4)"/><path class="cls-1" d="M102.1,40.4a2.5,2.5,0,0,0-1.6-2.4,10.44,10.44,0,0,0-3.8-.6c-3.3,0-5,.7-5.3,2-1.2,5.2,26,2,23,14.5-1.9,8-11.7,11.8-24.3,11.8-12.1,0-18.8-5.3-17.7-11.5H87a3,3,0,0,0,1.9,2.7,8.85,8.85,0,0,0,4.1.9c3.8,0,6.5-.9,6.8-2.5,1.2-5.2-26.1-1.6-23-14.7,1.7-7.3,11-11,22.5-11,12.8,0,17.4,4.9,17.1,10.9H102.1Z" transform="translate(-6.1 -6.4)"/><polygon class="cls-1" points="112.3 39 112.2 39 113 35.7 124.2 35.7 119.2 59 107.8 59 112.3 39"/><polygon class="cls-1" points="124.4 59 132.8 22.9 166 22.9 163.7 31.9 146.5 32 145.3 37.3 157.1 37.4 155.3 46.1 143.2 46.1 140.5 59 124.4 59"/><path class="cls-1" d="M24.5,68.9h2.7c1,0,1.6.2,1.6,1.3,0,.6-.1,1.1-.8,1.2v.1c.8,0,.9.5.9,1.1,0,1.3-.6,1.4-1.7,1.4H24.5Zm1.4,2h1c.5,0,.6-.1.6-.5s0-.4-.4-.4H26v.9Zm0,2h1c.4,0,.6-.1.6-.5s-.2-.5-.6-.5H25.8v1Z" transform="translate(-6.1 -6.4)"/><path class="cls-1" d="M29.5,68.9h2.6c1.2,0,1.8.3,1.8,1.5,0,.9,0,1.3-1,1.6v.1a.8.8,0,0,1,.9.9v1H32.4v-.7c0-.4-.1-.6-.6-.6H30.7V74H29.3V68.9Zm2.4,2.6c.6,0,.6-.2.6-.8s-.1-.6-.6-.6H30.8v1.4Z" transform="translate(-6.1 -6.4)"/><path class="cls-1" d="M36,74H34.6V68.9H36Z" transform="translate(-6.1 -6.4)"/><path class="cls-1" d="M39.1,74H37.7V70.1H36.4V68.9h4v1.2H39V74Z" transform="translate(-6.1 -6.4)"/><path class="cls-1" d="M42.2,74H40.8V68.9h1.4Z" transform="translate(-6.1 -6.4)"/><path class="cls-1" d="M45.4,70.9c1.5.1,1.9.3,1.9,1.5,0,.8,0,1.7-2.2,1.7-1.3,0-2.2,0-2.2-1.7h1.3c0,.5.2.6.9.6s.9,0,.9-.5-.1-.4-.7-.5H45c-1.3-.1-2-.1-2-1.5s.8-1.6,2.2-1.6c1.1,0,2.1,0,2.1,1.4v.2H46c0-.5-.2-.5-.8-.5s-.8.1-.8.4.2.4.6.4Z" transform="translate(-6.1 -6.4)"/><path class="cls-1" d="M52.5,74H51.1V72H49.3v2H48V68.9h1.4v1.9h1.8V68.9h1.4V74Z" transform="translate(-6.1 -6.4)"/><path class="cls-1" d="M58.1,70.9c1.5.1,1.9.3,1.9,1.5,0,.8,0,1.7-2.2,1.7-1.3,0-2.2,0-2.2-1.7h1.3c0,.5.2.6.9.6s.9,0,.9-.5-.1-.4-.7-.5h-.3c-1.3-.1-2-.1-2-1.5s.8-1.6,2.2-1.6c1.1,0,2.1,0,2.1,1.4v.2H58.7c0-.5-.2-.5-.8-.5-.9,0-.9.1-.9.4s.2.4.6.4Z" transform="translate(-6.1 -6.4)"/><path class="cls-1" d="M61.8,73.1l-.2.9H60.2l1.5-5.1h2.1L65.4,74H64l-.3-.9Zm.9-3.2h0l-.6,2.2h1.3Z" transform="translate(-6.1 -6.4)"/><path class="cls-1" d="M67,71h2v1.1H67V74H65.6V68.9h3.6V70H67Z" transform="translate(-6.1 -6.4)"/><path class="cls-1" d="M71.2,70.9h2.2v.9H71.2v1h2.4V74H69.9V68.9h3.7V70H71.3v.9Z" transform="translate(-6.1 -6.4)"/><path class="cls-1" d="M76.7,74H75.3V70.1H74V68.9h4v1.2H76.6V74Z" transform="translate(-6.1 -6.4)"/><path class="cls-1" d="M81.2,72.2V74H79.8V72.2L78,68.9h1.6l.9,2h0l.9-2H83Z" transform="translate(-6.1 -6.4)"/><path class="cls-1" d="M87.1,74H85.7V68.9h1.4Z" transform="translate(-6.1 -6.4)"/><path class="cls-1" d="M89.3,74H88V68.9h2.3l1.5,3.9h.1l-.1-3.9h1.4V74H90.9l-1.4-3.9h-.1Z" transform="translate(-6.1 -6.4)"/><path class="cls-1" d="M93.9,68.9h2.6c1.4,0,2.1.5,2.1,2V72c0,1.4-.4,2.1-1.9,2.1H93.9Zm1.3,3.9h1.2c.5,0,.7-.3.7-.9V70.8c0-.7-.2-.8-.7-.8H95.2Z" transform="translate(-6.1 -6.4)"/><path class="cls-1" d="M103.6,68.9v3.4c0,1.4-.6,1.7-2.1,1.7-2,0-2.3-.5-2.3-1.7V68.9h1.4v3.4c0,.6.3.6.9.6s.8,0,.8-.6V69h1.3Z" transform="translate(-6.1 -6.4)"/><path class="cls-1" d="M106.8,70.9c1.5.1,1.9.3,1.9,1.5,0,.8,0,1.7-2.2,1.7-1.3,0-2.2,0-2.2-1.7h1.3c0,.5.2.6.9.6s.9,0,.9-.5-.1-.4-.7-.5h-.3c-1.3-.1-2-.1-2-1.5s.8-1.6,2.2-1.6c1.1,0,2.1,0,2.1,1.4v.2h-1.3c0-.5-.2-.5-.8-.5s-.8.1-.8.4.2.4.6.4Z" transform="translate(-6.1 -6.4)"/><path class="cls-1" d="M111.6,74h-1.4V70.1h-1.3V68.9h4v1.2h-1.4V74Z" transform="translate(-6.1 -6.4)"/><path class="cls-1" d="M113.4,68.9H116c1.2,0,1.8.3,1.8,1.5,0,.9,0,1.3-1,1.6v.1a.8.8,0,0,1,.9.9v1h-1.4v-.7c0-.4-.1-.6-.6-.6h-1.1V74h-1.4V68.9Zm2.4,2.6c.6,0,.6-.2.6-.8s-.1-.6-.6-.6h-1.1v1.4Z" transform="translate(-6.1 -6.4)"/><path class="cls-1" d="M121.1,72.2V74h-1.4V72.2l-1.8-3.3h1.6l.9,2h0l.9-2h1.6Z" transform="translate(-6.1 -6.4)"/><path class="cls-1" d="M127,71h2.1v1.1H127V74h-1.4V68.9h3.6V70H127Z" transform="translate(-6.1 -6.4)"/><path class="cls-1" d="M131.3,70.9h2.2v.9h-2.2v1h2.4V74H130V68.9h3.7V70h-2.3v.9Z" transform="translate(-6.1 -6.4)"/><path class="cls-1" d="M134.5,68.9h2.6c1.4,0,2.1.5,2.1,2V72c0,1.4-.4,2.1-1.9,2.1h-2.8V68.9Zm1.3,3.9H137c.5,0,.7-.3.7-.9V70.8c0-.7-.2-.8-.7-.8h-1.2Z" transform="translate(-6.1 -6.4)"/><path class="cls-1" d="M141.2,70.9h2.2v.9h-2.2v1h2.4V74h-3.7V68.9h3.7V70h-2.3v.9Z" transform="translate(-6.1 -6.4)"/><path class="cls-1" d="M144.4,68.9H147c1.2,0,1.8.3,1.8,1.5,0,.9,0,1.3-1,1.6v.1a.8.8,0,0,1,.9.9v1h-1.4v-.7c0-.4-.1-.6-.6-.6h-1.1V74h-1.4V68.9Zm2.4,2.6c.6,0,.6-.2.6-.8s-.1-.6-.6-.6h-1.1v1.4Z" transform="translate(-6.1 -6.4)"/><path class="cls-1" d="M150.6,73.1l-.3.9H149l1.5-5.1h2.1l1.6,5.1h-1.4l-.3-.9Zm1-3.2h0l-.6,2.2h1.3Z" transform="translate(-6.1 -6.4)"/><path class="cls-1" d="M156.5,74h-1.4V70.1h-1.3V68.9h4v1.2h-1.4V74Z" transform="translate(-6.1 -6.4)"/><path class="cls-1" d="M159.7,74h-1.4V68.9h1.4Z" transform="translate(-6.1 -6.4)"/><path class="cls-1" d="M160.3,72.2V70.8c0-1.6,1-1.9,2.4-1.9s2.4.3,2.4,1.9v1.4c0,1.6-1,1.9-2.4,1.9S160.3,73.7,160.3,72.2Zm3.4-.2V70.8c0-.8-.3-.8-1-.8s-.9.1-1,.8V72c0,.8.3.8,1,.8S163.7,72.8,163.7,72Z" transform="translate(-6.1 -6.4)"/><path class="cls-1" d="M167.1,74h-1.4V68.9H168l1.5,3.9h.1l-.1-3.9h1.4V74h-2.3l-1.4-3.9H167Z" transform="translate(-6.1 -6.4)"/><rect class="cls-1" x="18" y="60.3" width="147.4" height="1.1"/></svg>