<svg id="Layer_1" data-name="Layer 1" xmlns="http://www.w3.org/2000/svg" viewBox="0 0 25 225.67"><defs><style>.cls-1{fill:#fff;}.cls-2{fill:#e83272;}.cls-3,.cls-4,.cls-5{fill:none;}.cls-4{stroke:#e83272;}.cls-4,.cls-5{stroke-linecap:round;stroke-miterlimit:10;}.cls-5{stroke:#fff;}</style></defs><title>sprite</title><g id="_3_3" data-name="3_3"><path class="cls-1" d="M25.8,144.1l-5.9-5.9a9.16,9.16,0,0,0,2.1-5.8,9,9,0,1,0-9,9,9.16,9.16,0,0,0,5.8-2.1l5.9,5.9a.73.73,0,0,0,.6.2,1.42,1.42,0,0,0,.6-.2A.91.91,0,0,0,25.8,144.1ZM13,139.8a7.4,7.4,0,1,1,7.4-7.4A7.51,7.51,0,0,1,13,139.8Z" transform="translate(-2.5 -4.5)"/></g><g id="_3_6" data-name="3_6"><path class="cls-2" d="M15,32.8a8.92,8.92,0,0,0-9,8.8c0,3.8,5.5,11.5,7.9,14.6a1.61,1.61,0,0,0,1.1.5h0a1.61,1.61,0,0,0,1.1-.5C18.5,53,24,45.4,24,41.6A8.92,8.92,0,0,0,15,32.8Zm.6,21.4a.75.75,0,0,1-1.2,0c-4.2-5.7-6.7-10.4-6.7-12.5a7.28,7.28,0,0,1,7.4-7.2,7.28,7.28,0,0,1,7.4,7.2C22.4,43.8,19.8,48.6,15.6,54.2ZM15,37.3a3.8,3.8,0,1,0,3.8,3.8A3.8,3.8,0,0,0,15,37.3Zm0,6a2.1,2.1,0,1,1,2.2-2.1A2.2,2.2,0,0,1,15,43.3Z" transform="translate(-2.5 -4.5)"/></g><g id="_3_6-2" data-name="3_6"><path class="cls-1" d="M15,63.1a8.92,8.92,0,0,0-9,8.8c0,3.8,5.5,11.5,7.9,14.6A1.61,1.61,0,0,0,15,87h0a1.61,1.61,0,0,0,1.1-.5C18.5,83.3,24,75.7,24,71.9A8.86,8.86,0,0,0,15,63.1Zm.6,21.4a.75.75,0,0,1-1.2,0C10.2,78.8,7.7,74.1,7.7,72a7.28,7.28,0,0,1,7.4-7.2A7.28,7.28,0,0,1,22.5,72C22.4,74.1,19.8,78.8,15.6,84.5ZM15,67.6a3.8,3.8,0,1,0,3.8,3.8A3.8,3.8,0,0,0,15,67.6Zm0,5.9a2.1,2.1,0,1,1,2.2-2.1A2.2,2.2,0,0,1,15,73.5Z" transform="translate(-2.5 -4.5)"/></g><g id="_1_6" data-name="1_6"><path class="cls-1" d="M25.8,4.5H4.2A1.75,1.75,0,0,0,2.5,6.2V22.7a1.75,1.75,0,0,0,1.7,1.7H25.8a1.75,1.75,0,0,0,1.7-1.7V6.2A1.75,1.75,0,0,0,25.8,4.5ZM24.6,6.2l-9.3,9.3c-.3.3-.3.3-.6,0L5.4,6.2Zm1.2,15.7L20,16.2a.85.85,0,0,0-1.2,1.2l5.4,5.4H5.9l5.4-5.4a.85.85,0,0,0-1.2-1.2L4.2,22.1V7.5l9.3,9.2a2.41,2.41,0,0,0,1.8.7c.7,0,.8-.3,1.2-.7l9.3-9.2Z" transform="translate(-2.5 -4.5)"/></g><path class="cls-1" d="M20.3,101.7a.76.76,0,0,1,.2.5c0,.2-.1.3-.2.5l-4.8,4.7a.76.76,0,0,1-.5.2c-.2,0-.3-.1-.5-.2l-4.8-4.7a.76.76,0,0,1-.2-.5c0-.2.1-.3.2-.5a.76.76,0,0,1,.5-.2h9.6A.76.76,0,0,1,20.3,101.7Z" transform="translate(-2.5 -4.5)"/><path class="cls-3" d="M15,176.9a12,12,0,1,1,12-12A12,12,0,0,1,15,176.9Z" transform="translate(-2.5 -4.5)"/><path class="cls-2" d="M15,153.4A11.5,11.5,0,1,1,3.5,164.9,11.57,11.57,0,0,1,15,153.4m0-1a12.5,12.5,0,1,0,12.5,12.5A12.5,12.5,0,0,0,15,152.4Z" transform="translate(-2.5 -4.5)"/><polyline class="cls-4" points="10.6 155.1 16.1 160.6 10.6 166.1"/><path class="cls-1" d="M15,183.5A11.5,11.5,0,1,1,3.5,195,11.57,11.57,0,0,1,15,183.5m0-1A12.5,12.5,0,1,0,27.5,195,12.5,12.5,0,0,0,15,182.5Z" transform="translate(-2.5 -4.5)"/><polyline class="cls-5" points="10.6 185.2 16.1 190.7 10.6 196.2"/><path class="cls-1" d="M21.1,225.2l-8.9,4.9a.19.19,0,0,1-.3,0c-.1,0-.1-.1-.1-.2V220c0-.1,0-.2.1-.2h.3l8.9,4.9c.1.1.2.1.2.2A.77.77,0,0,1,21.1,225.2Z" transform="translate(-2.5 -4.5)"/></svg>