<svg xmlns="http://www.w3.org/2000/svg" xmlns:xlink="http://www.w3.org/1999/xlink" width="27px" height="34px">
	<path fill-rule="evenodd" fill="rgb(232, 50, 114)" d="M15.047,33.051 C14.683,33.530 14.109,33.812 13.500,33.812 C12.891,33.812 12.318,33.530 11.953,33.052 C8.586,28.627 0.892,17.934 0.892,12.595 C0.892,5.760 6.536,0.219 13.500,0.219 C20.464,0.219 26.109,5.760 26.109,12.595 C26.109,17.933 18.415,28.627 15.047,33.051 ZM13.500,2.476 C7.815,2.476 3.190,7.015 3.190,12.595 C3.190,15.593 6.776,22.235 12.634,30.154 C12.835,30.426 13.158,30.587 13.500,30.587 C13.843,30.587 14.166,30.426 14.367,30.154 C20.224,22.235 23.810,15.593 23.810,12.595 C23.810,7.015 19.185,2.476 13.500,2.476 ZM13.500,17.077 C10.538,17.077 8.137,14.721 8.137,11.813 C8.137,8.906 10.538,6.549 13.500,6.549 C16.462,6.549 18.864,8.906 18.864,11.813 C18.864,14.721 16.462,17.077 13.500,17.077 ZM13.500,8.805 C11.811,8.805 10.436,10.154 10.436,11.813 C10.436,13.472 11.811,14.821 13.500,14.821 C15.190,14.821 16.566,13.472 16.566,11.813 C16.566,10.154 15.190,8.805 13.500,8.805 Z"/>
</svg>