<?xml version="1.0" encoding="utf-8"?>
<!-- Generator: Adobe Illustrator 21.0.0, SVG Export Plug-In . SVG Version: 6.00 Build 0)  -->
<svg version="1.1" id="Layer_1" xmlns="http://www.w3.org/2000/svg" xmlns:xlink="http://www.w3.org/1999/xlink" x="0px" y="0px"
	 viewBox="0 0 30 243.8" style="enable-background:new 0 0 30 243.8;" xml:space="preserve">
<style type="text/css">
	.st0{fill:#FFFFFF;}
	.st1{fill:#E83272;}
	.st2{fill:none;}
	.st3{fill:none;stroke:#E83272;stroke-linecap:round;stroke-miterlimit:10;}
	.st4{fill:none;stroke:#FFFFFF;stroke-linecap:round;stroke-miterlimit:10;}
</style>
<g>
	<g id="_x33__x5F_3">
		<g>
			<path class="st0" d="M25.8,144.1l-5.9-5.9c1.3-1.6,2.1-3.6,2.1-5.8c0-5-4-9-9-9s-9,4-9,9s4,9,9,9c2.2,0,4.2-0.8,5.8-2.1l5.9,5.9
				c0.2,0.2,0.4,0.2,0.6,0.2s0.4-0.1,0.6-0.2C26.1,144.9,26.1,144.4,25.8,144.1z M13,139.8c-4.1,0-7.4-3.3-7.4-7.4S8.9,125,13,125
				s7.4,3.3,7.4,7.4C20.3,136.5,17,139.8,13,139.8z"/>
		</g>
	</g>
</g>
<g>
	<g id="_x33__x5F_6_1_">
		<g>
			<path class="st1" d="M15,32.8c-5,0-9,4-9,8.8c0,3.8,5.5,11.5,7.9,14.6c0.3,0.3,0.7,0.5,1.1,0.5l0,0c0.4,0,0.8-0.2,1.1-0.5
				C18.5,53,24,45.4,24,41.6C24,36.8,20,32.8,15,32.8z M15.6,54.2c-0.1,0.2-0.4,0.3-0.6,0.3s-0.5-0.1-0.6-0.3
				c-4.2-5.7-6.7-10.4-6.7-12.5c0-4,3.3-7.2,7.4-7.2s7.4,3.2,7.4,7.2C22.4,43.8,19.8,48.6,15.6,54.2z M15,37.3
				c-2.1,0-3.8,1.7-3.8,3.8s1.7,3.8,3.8,3.8s3.8-1.7,3.8-3.8S17.1,37.3,15,37.3z M15,43.3c-1.2,0-2.2-1-2.2-2.1s1-2.1,2.2-2.1
				s2.2,1,2.2,2.1S16.2,43.3,15,43.3z"/>
		</g>
	</g>
</g>
<g>
	<g id="_x33__x5F_6_2_">
		<g>
			<path class="st0" d="M15,63.1c-5,0-9,4-9,8.8c0,3.8,5.5,11.5,7.9,14.6c0.3,0.3,0.7,0.5,1.1,0.5l0,0c0.4,0,0.8-0.2,1.1-0.5
				c2.4-3.2,7.9-10.8,7.9-14.6C24,67,20,63.1,15,63.1z M15.6,84.5c-0.1,0.2-0.4,0.3-0.6,0.3s-0.5-0.1-0.6-0.3
				C10.2,78.8,7.7,74.1,7.7,72c0-4,3.3-7.2,7.4-7.2s7.4,3.2,7.4,7.2C22.4,74.1,19.8,78.8,15.6,84.5z M15,67.6
				c-2.1,0-3.8,1.7-3.8,3.8c0,2.1,1.7,3.8,3.8,3.8s3.8-1.7,3.8-3.8C18.8,69.3,17.1,67.6,15,67.6z M15,73.5c-1.2,0-2.2-1-2.2-2.1
				s1-2.1,2.2-2.1s2.2,1,2.2,2.1S16.2,73.5,15,73.5z"/>
		</g>
	</g>
</g>
<g>
	<g id="_x31__x5F_6">
		<g>
			<path class="st0" d="M25.8,4.5H4.2c-0.9,0-1.7,0.8-1.7,1.7v16.5c0,0.9,0.8,1.7,1.7,1.7h21.6c0.9,0,1.7-0.8,1.7-1.7V6.2
				C27.5,5.3,26.7,4.5,25.8,4.5z M24.6,6.2l-9.3,9.3c-0.3,0.3-0.3,0.3-0.6,0L5.4,6.2H24.6z M25.8,21.9L20,16.2
				c-0.3-0.3-0.9-0.3-1.2,0c-0.3,0.3-0.3,0.9,0,1.2l5.4,5.4H5.9l5.4-5.4c0.3-0.3,0.3-0.9,0-1.2s-0.9-0.3-1.2,0l-5.9,5.9V7.5l9.3,9.2
				c0.5,0.5,1.1,0.7,1.8,0.7s0.8-0.3,1.2-0.7l9.3-9.2C25.8,7.5,25.8,21.9,25.8,21.9z"/>
		</g>
	</g>
</g>
<g>
	<path class="st0" d="M20.3,101.7c0.1,0.1,0.2,0.3,0.2,0.5s-0.1,0.3-0.2,0.5l-4.8,4.7c-0.1,0.1-0.3,0.2-0.5,0.2s-0.3-0.1-0.5-0.2
		l-4.8-4.7c-0.1-0.1-0.2-0.3-0.2-0.5s0.1-0.3,0.2-0.5c0.1-0.1,0.3-0.2,0.5-0.2h9.6C20,101.5,20.2,101.6,20.3,101.7z"/>
</g>
<g>
	<path class="st2" d="M15,176.9c-6.6,0-12-5.4-12-12s5.4-12,12-12s12,5.4,12,12S21.6,176.9,15,176.9z"/>
	<path class="st1" d="M15,153.4c6.3,0,11.5,5.2,11.5,11.5s-5.2,11.5-11.5,11.5s-11.5-5.2-11.5-11.5S8.7,153.4,15,153.4 M15,152.4
		c-6.9,0-12.5,5.6-12.5,12.5s5.6,12.5,12.5,12.5s12.5-5.6,12.5-12.5S21.9,152.4,15,152.4L15,152.4z"/>
</g>
<polyline class="st3" points="13.1,159.6 18.6,165.1 13.1,170.6 "/>
<g>
	<path class="st0" d="M15,183.5c6.3,0,11.5,5.2,11.5,11.5s-5.2,11.5-11.5,11.5S3.5,201.3,3.5,195S8.7,183.5,15,183.5 M15,182.5
		c-6.9,0-12.5,5.6-12.5,12.5s5.6,12.5,12.5,12.5s12.5-5.6,12.5-12.5S21.9,182.5,15,182.5L15,182.5z"/>
</g>
<polyline class="st4" points="13.1,189.7 18.6,195.2 13.1,200.7 "/>
<g>
	<path class="st0" d="M21.1,225.2l-8.9,4.9c-0.1,0.1-0.2,0.1-0.3,0c-0.1,0-0.1-0.1-0.1-0.2V220c0-0.1,0-0.2,0.1-0.2s0.2,0,0.3,0
		l8.9,4.9c0.1,0.1,0.2,0.1,0.2,0.2C21.2,225.1,21.2,225.1,21.1,225.2z"/>
</g>
</svg>
