<svg xmlns="http://www.w3.org/2000/svg" viewBox="0 0 25 203"><defs><style>.cls-1{fill:#fff}.cls-2{fill:#e83272}.cls-3,.cls-4,.cls-5{fill:none}.cls-4,.cls-5{stroke:#e83272;stroke-linecap:round;stroke-miterlimit:10}.cls-5{stroke:#fff}</style></defs><title>sprite</title><g id="Layer_1" data-name="Layer 1"><path class="cls-1" d="M25.8 144.1l-5.9-5.9a9.16 9.16 0 0 0 2.1-5.8 9 9 0 1 0-9 9 9.16 9.16 0 0 0 5.8-2.1l5.9 5.9a.73.73 0 0 0 .6.2 1.42 1.42 0 0 0 .6-.2.91.91 0 0 0-.1-1.1zM13 139.8a7.4 7.4 0 1 1 7.4-7.4 7.51 7.51 0 0 1-7.4 7.4z" transform="translate(-2.5 -4.5)" id="_3_3" data-name="3_3"/><path class="cls-2" d="M15 32.8a8.92 8.92 0 0 0-9 8.8c0 3.8 5.5 11.5 7.9 14.6a1.61 1.61 0 0 0 1.1.5 1.61 1.61 0 0 0 1.1-.5C18.5 53 24 45.4 24 41.6a8.92 8.92 0 0 0-9-8.8zm.6 21.4a.75.75 0 0 1-1.2 0c-4.2-5.7-6.7-10.4-6.7-12.5a7.28 7.28 0 0 1 7.4-7.2 7.28 7.28 0 0 1 7.4 7.2c-.1 2.1-2.7 6.9-6.9 12.5zM15 37.3a3.8 3.8 0 1 0 3.8 3.8 3.8 3.8 0 0 0-3.8-3.8zm0 6a2.1 2.1 0 1 1 2.2-2.1 2.2 2.2 0 0 1-2.2 2.1z" transform="translate(-2.5 -4.5)" id="_3_6" data-name="3_6"/><path class="cls-1" d="M15 63.1a8.92 8.92 0 0 0-9 8.8c0 3.8 5.5 11.5 7.9 14.6a1.61 1.61 0 0 0 1.1.5 1.61 1.61 0 0 0 1.1-.5c2.4-3.2 7.9-10.8 7.9-14.6a8.86 8.86 0 0 0-9-8.8zm.6 21.4a.75.75 0 0 1-1.2 0C10.2 78.8 7.7 74.1 7.7 72a7.28 7.28 0 0 1 7.4-7.2 7.28 7.28 0 0 1 7.4 7.2c-.1 2.1-2.7 6.8-6.9 12.5zM15 67.6a3.8 3.8 0 1 0 3.8 3.8 3.8 3.8 0 0 0-3.8-3.8zm0 5.9a2.1 2.1 0 1 1 2.2-2.1 2.2 2.2 0 0 1-2.2 2.1z" transform="translate(-2.5 -4.5)" id="_3_6-2" data-name="3_6"/><path class="cls-1" d="M25.8 4.5H4.2a1.75 1.75 0 0 0-1.7 1.7v16.5a1.75 1.75 0 0 0 1.7 1.7h21.6a1.75 1.75 0 0 0 1.7-1.7V6.2a1.75 1.75 0 0 0-1.7-1.7zm-1.2 1.7l-9.3 9.3c-.3.3-.3.3-.6 0L5.4 6.2zm1.2 15.7L20 16.2a.85.85 0 0 0-1.2 1.2l5.4 5.4H5.9l5.4-5.4a.85.85 0 0 0-1.2-1.2l-5.9 5.9V7.5l9.3 9.2a2.41 2.41 0 0 0 1.8.7c.7 0 .8-.3 1.2-.7l9.3-9.2z" transform="translate(-2.5 -4.5)" id="_1_6" data-name="1_6"/><path class="cls-1" d="M20.3 101.7a.76.76 0 0 1 .2.5c0 .2-.1.3-.2.5l-4.8 4.7a.76.76 0 0 1-.5.2c-.2 0-.3-.1-.5-.2l-4.8-4.7a.76.76 0 0 1-.2-.5c0-.2.1-.3.2-.5a.76.76 0 0 1 .5-.2h9.6a.76.76 0 0 1 .5.2z" transform="translate(-2.5 -4.5)"/><path class="cls-3" d="M15 176.9a12 12 0 1 1 12-12 12 12 0 0 1-12 12z" transform="translate(-2.5 -4.5)"/><path class="cls-2" d="M15 153.4a11.5 11.5 0 1 1-11.5 11.5A11.57 11.57 0 0 1 15 153.4m0-1a12.5 12.5 0 1 0 12.5 12.5A12.5 12.5 0 0 0 15 152.4z" transform="translate(-2.5 -4.5)"/><path class="cls-4" d="M10.6 155.1l5.5 5.5-5.5 5.5"/><path class="cls-3" d="M15 207a12 12 0 1 1 12-12 12 12 0 0 1-12 12z" transform="translate(-2.5 -4.5)"/><path class="cls-1" d="M15 183.5A11.5 11.5 0 1 1 3.5 195 11.57 11.57 0 0 1 15 183.5m0-1A12.5 12.5 0 1 0 27.5 195 12.5 12.5 0 0 0 15 182.5z" transform="translate(-2.5 -4.5)"/><path class="cls-5" d="M10.6 185.2l5.5 5.5-5.5 5.5"/></g></svg>