<svg id="Layer_1" xmlns="http://www.w3.org/2000/svg" viewBox="0 0 30 367"><style>.st0{fill:#fff}.st1{fill:#e83272}.st2{fill:#94aab3}.st3{fill:none}.st4,.st5{fill:none;stroke:#e83272;stroke-linecap:round;stroke-miterlimit:10}.st5{stroke:#fff}.st6{fill:#262e61}</style><path class="st0" d="M25.8 144.1l-5.9-5.9c1.3-1.6 2.1-3.6 2.1-5.8 0-5-4-9-9-9s-9 4-9 9 4 9 9 9c2.2 0 4.2-.8 5.8-2.1l5.9 5.9c.2.2.4.2.6.2s.4-.1.6-.2c.2-.3.2-.8-.1-1.1zM13 139.8c-4.1 0-7.4-3.3-7.4-7.4S8.9 125 13 125s7.4 3.3 7.4 7.4c-.1 4.1-3.4 7.4-7.4 7.4z" id="_x33__x5F_3"/><path class="st1" d="M15 32.8c-5 0-9 4-9 8.8 0 3.8 5.5 11.5 7.9 14.6.3.3.7.5 1.1.5.4 0 .8-.2 1.1-.5C18.5 53 24 45.4 24 41.6c0-4.8-4-8.8-9-8.8zm.6 21.4c-.1.2-.4.3-.6.3s-.5-.1-.6-.3c-4.2-5.7-6.7-10.4-6.7-12.5 0-4 3.3-7.2 7.4-7.2s7.4 3.2 7.4 7.2c-.1 2.1-2.7 6.9-6.9 12.5zM15 37.3c-2.1 0-3.8 1.7-3.8 3.8s1.7 3.8 3.8 3.8 3.8-1.7 3.8-3.8-1.7-3.8-3.8-3.8zm0 6c-1.2 0-2.2-1-2.2-2.1s1-2.1 2.2-2.1 2.2 1 2.2 2.1-1 2.1-2.2 2.1z" id="_x33__x5F_6_1_"/><path class="st0" d="M15 63.1c-5 0-9 4-9 8.8 0 3.8 5.5 11.5 7.9 14.6.3.3.7.5 1.1.5.4 0 .8-.2 1.1-.5 2.4-3.2 7.9-10.8 7.9-14.6 0-4.9-4-8.8-9-8.8zm.6 21.4c-.1.2-.4.3-.6.3s-.5-.1-.6-.3C10.2 78.8 7.7 74.1 7.7 72c0-4 3.3-7.2 7.4-7.2s7.4 3.2 7.4 7.2c-.1 2.1-2.7 6.8-6.9 12.5zM15 67.6c-2.1 0-3.8 1.7-3.8 3.8 0 2.1 1.7 3.8 3.8 3.8s3.8-1.7 3.8-3.8c0-2.1-1.7-3.8-3.8-3.8zm0 5.9c-1.2 0-2.2-1-2.2-2.1s1-2.1 2.2-2.1 2.2 1 2.2 2.1-1 2.1-2.2 2.1z" id="_x33__x5F_6_2_"/><path class="st0" d="M25.8 4.5H4.2c-.9 0-1.7.8-1.7 1.7v16.5c0 .9.8 1.7 1.7 1.7h21.6c.9 0 1.7-.8 1.7-1.7V6.2c0-.9-.8-1.7-1.7-1.7zm-1.2 1.7l-9.3 9.3c-.3.3-.3.3-.6 0L5.4 6.2h19.2zm1.2 15.7L20 16.2c-.3-.3-.9-.3-1.2 0-.3.3-.3.9 0 1.2l5.4 5.4H5.9l5.4-5.4c.3-.3.3-.9 0-1.2-.3-.3-.9-.3-1.2 0l-5.9 5.9V7.5l9.3 9.2c.5.5 1.1.7 1.8.7s.8-.3 1.2-.7l9.3-9.2v14.4z" id="_x31__x5F_6"/><path class="st0" d="M20.3 101.7c.1.1.2.3.2.5s-.1.3-.2.5l-4.8 4.7c-.1.1-.3.2-.5.2s-.3-.1-.5-.2l-4.8-4.7c-.1-.1-.2-.3-.2-.5s.1-.3.2-.5c.1-.1.3-.2.5-.2h9.6c.2 0 .4.1.5.2z"/><path class="st2" d="M20.3 348.2c.1.1.2.3.2.5s-.1.3-.2.5l-4.8 4.7c-.1.1-.3.2-.5.2s-.3-.1-.5-.2l-4.8-4.7c-.1-.1-.2-.3-.2-.5s.1-.3.2-.5c.1-.1.3-.2.5-.2h9.6c.2 0 .4.1.5.2z"/><path class="st3" d="M15 176.9c-6.6 0-12-5.4-12-12s5.4-12 12-12 12 5.4 12 12-5.4 12-12 12z"/><path class="st1" d="M15 153.4c6.3 0 11.5 5.2 11.5 11.5s-5.2 11.5-11.5 11.5-11.5-5.2-11.5-11.5 5.2-11.5 11.5-11.5m0-1c-6.9 0-12.5 5.6-12.5 12.5s5.6 12.5 12.5 12.5 12.5-5.6 12.5-12.5-5.6-12.5-12.5-12.5z"/><path class="st4" d="M13.1 159.6l5.5 5.5-5.5 5.5"/><path class="st0" d="M15 183.5c6.3 0 11.5 5.2 11.5 11.5s-5.2 11.5-11.5 11.5S3.5 201.3 3.5 195s5.2-11.5 11.5-11.5m0-1c-6.9 0-12.5 5.6-12.5 12.5s5.6 12.5 12.5 12.5 12.5-5.6 12.5-12.5-5.6-12.5-12.5-12.5z"/><path class="st5" d="M13.1 189.7l5.5 5.5-5.5 5.5"/><path class="st0" d="M21.1 225.2l-8.9 4.9c-.1.1-.2.1-.3 0-.1 0-.1-.1-.1-.2V220c0-.1 0-.2.1-.2h.3l8.9 4.9c.1.1.2.1.2.2-.1.2-.1.2-.2.3z"/><path class="st6" d="M21.3 250.8c0 .3-.1.5-.3.7l-4.1 4.1c-.2.2-.5.3-.8.3-.3 0-.5-.1-.7-.3l-5.9-5.9c-.2-.2-.4-.5-.5-.8-.1-.4-.2-.7-.2-1v-3.4c0-.3.1-.5.3-.7s.5-.3.7-.3h3.4c.3 0 .6.1 1 .2s.6.3.8.5l6 5.8c.2.3.3.5.3.8zm-9.2-4c.2-.2.3-.5.3-.7 0-.3-.1-.5-.3-.7s-.5-.3-.7-.3c-.3 0-.5.1-.7.3s-.3.5-.3.7c0 .3.1.5.3.7s.5.3.7.3c.3 0 .5-.1.7-.3z"/><path class="st2" d="M25 270.5c.6 0 1 .5 1 1v19.9c0 .6-.5 1-1 1H5c-.6 0-1-.5-1-1v-19.9c0-.6.5-1 1-1h20m0-2H5c-1.7 0-3 1.4-3 3v19.9c0 1.7 1.4 3 3 3h20c1.7 0 3-1.4 3-3v-19.9c0-1.6-1.4-3-3-3z"/><path class="st2" d="M23.3 277.1l-1.5-1.5-8.9 9-3.4-3.5-1.5 1.5 4.9 4.8 1.4-1.4z"/><g><path class="st2" d="M25 308.9c.6 0 1 .5 1 1v19.9c0 .6-.5 1-1 1H5c-.6 0-1-.5-1-1v-19.9c0-.6.5-1 1-1h20m0-2H5c-1.7 0-3 1.4-3 3v19.9c0 1.7 1.4 3 3 3h20c1.7 0 3-1.4 3-3v-19.9c0-1.7-1.4-3-3-3z"/></g></svg>